<svg width="512" height="512" viewBox="0 0 512 512" xmlns="http://www.w3.org/2000/svg">
  <path d="M128 92C146.778 92 162 107.222 162 126C162 144.778 146.778 160 128 160C109.222 160 94 144.778 94 126C94 107.222 109.222 92 128 92Z"/>
  <path d="M157 116H300L374 190V350C374 376.51 352.51 398 326 398H186C159.49 398 138 376.51 138 350V135C138 124.507 146.507 116 157 116ZM187 211C180.925 211 176 215.925 176 222C176 228.075 180.925 233 187 233H303C309.075 233 314 228.075 314 222C314 215.925 309.075 211 303 211H187ZM187 269C180.925 269 176 273.925 176 280C176 286.075 180.925 291 187 291H329C335.075 291 340 286.075 340 280C340 273.925 335.075 269 329 269H187ZM187 327C180.925 327 176 331.925 176 338C176 344.075 180.925 349 187 349H268C274.075 349 279 344.075 279 338C279 331.925 274.075 327 268 327H187ZM300 116V168C300 180.15 309.85 190 322 190H374L300 116Z" fill-rule="evenodd"/>
</svg>
